<svg xmlns="http://www.w3.org/2000/svg" viewBox="0 0 73.76 57.53"><defs><style>.cls-1{fill:#fff;}</style></defs><g id="レイヤー_2" data-name="レイヤー 2"><g id="レイヤー_9" data-name="レイヤー 9"><path class="cls-1" d="M54.1,45.8a1.39,1.39,0,0,1-.89-.36,1.8,1.8,0,0,1-.46-.86,5.92,5.92,0,0,1-2.29,1.22,2.33,2.33,0,0,1-2.32-2.34,1.93,1.93,0,0,1,1.56-1.9,15.23,15.23,0,0,0,3-1.24v-.38c0-1.36-.68-2.14-1.67-2.14a1.11,1.11,0,0,0-.9.44,4.13,4.13,0,0,0-.51,1.24.54.54,0,0,1-.56.44.91.91,0,0,1-.83-.84c0-.27.24-.5.62-.76A8.1,8.1,0,0,1,51.61,37a2.51,2.51,0,0,1,2.57,2.73v3.67c0,.88.32,1.15.67,1.15a1.58,1.58,0,0,0,.68-.21l.19.53ZM52.71,41c-.42.21-1.33.61-1.77.8-.72.33-1.16.69-1.16,1.39a1.39,1.39,0,0,0,1.37,1.47A2.51,2.51,0,0,0,52.71,44Z"/><path class="cls-1" d="M63,39.48c-.35-1.11-.84-1.87-2-1.87a1.16,1.16,0,0,0-1.18,1.24c0,.82.55,1.2,1.62,1.7,1.63.78,2.45,1.35,2.45,2.61a2.83,2.83,0,0,1-3.1,2.64,5,5,0,0,1-2.27-.53c-.09-.55-.27-1.6-.34-2.23l.55-.09c.34,1.22,1,2.21,2.34,2.21a1.28,1.28,0,0,0,1.34-1.3c0-.86-.52-1.29-1.53-1.79-1.33-.65-2.42-1.26-2.42-2.63s1.18-2.46,3-2.46a9.4,9.4,0,0,1,1.82.25c.06.46.19,1.66.29,2.12Z"/><path class="cls-1" d="M73.67,44A4.35,4.35,0,0,1,70.5,45.8a3.8,3.8,0,0,1-3.73-4.09A4.91,4.91,0,0,1,68,38.37,3.93,3.93,0,0,1,70.85,37a3,3,0,0,1,2.91,3c0,.38-.08.55-.38.62s-2.82.25-5.09.33c-.05,2.55,1.51,3.6,2.86,3.6a3.2,3.2,0,0,0,2.21-1Zm-3.28-6.25c-.88,0-1.73.82-2,2.36,1.07,0,2.13,0,3.26-.06.34,0,.45-.09.45-.38A1.76,1.76,0,0,0,70.39,37.71Z"/><path class="cls-1" d="M38,33.86a7.92,7.92,0,0,0-5.35-3.67,10.81,10.81,0,0,0-7,.73c-2.56,1.24-3.91,3.5-4.81,6a16.41,16.41,0,0,0-1,4.63c-.21,4.58.89,8.73,4.81,11.61a10.19,10.19,0,0,0,12.78-.65,10.91,10.91,0,0,0,1.66-2.33,3.31,3.31,0,0,0,.23-1c-1.91-.56-2.61-1.31-2.71-2.82A2.77,2.77,0,0,1,39,43.62a2.58,2.58,0,0,1,3,1.93,7.53,7.53,0,0,1-.11,2.59,12,12,0,0,1-3.65,6.65,10.91,10.91,0,0,1-6.56,2.67c-3.95.34-7.56-.47-10.53-3.3a13.78,13.78,0,0,1-4.16-8,18,18,0,0,1,1.27-10.68C21.46,28.67,29,26,36,29.2a11.8,11.8,0,0,1,5.76,5,3.45,3.45,0,0,1-.7,4.21,2.64,2.64,0,0,1-4-.84A2.56,2.56,0,0,1,38,33.86Z"/><path class="cls-1" d="M39.76,15.7a1.39,1.39,0,0,1-.89-.36,1.85,1.85,0,0,1-.46-.86,6.06,6.06,0,0,1-2.29,1.22,2.34,2.34,0,0,1-2.32-2.34,1.93,1.93,0,0,1,1.56-1.91,14.64,14.64,0,0,0,3-1.24V9.83c0-1.35-.68-2.13-1.67-2.13a1.11,1.11,0,0,0-.9.44,3.94,3.94,0,0,0-.51,1.23.54.54,0,0,1-.56.44A.91.91,0,0,1,33.9,9c0-.26.24-.49.62-.76a8.1,8.1,0,0,1,2.75-1.33A2.49,2.49,0,0,1,39.84,9.6v3.68c0,.88.32,1.14.67,1.14a1.46,1.46,0,0,0,.68-.21l.19.54Zm-1.39-4.82c-.42.21-1.33.61-1.77.8-.72.32-1.16.68-1.16,1.39a1.39,1.39,0,0,0,1.37,1.47,2.55,2.55,0,0,0,1.56-.69Z"/><path class="cls-1" d="M48.68,9.37c-.35-1.1-.84-1.86-2-1.86A1.15,1.15,0,0,0,45.5,8.75c0,.81.55,1.2,1.61,1.69,1.64.78,2.46,1.35,2.46,2.61a2.84,2.84,0,0,1-3.1,2.65,5.12,5.12,0,0,1-2.27-.53c-.09-.56-.27-1.61-.34-2.23l.55-.1c.34,1.22,1,2.21,2.34,2.21a1.27,1.27,0,0,0,1.34-1.29c0-.86-.52-1.3-1.53-1.8-1.33-.64-2.42-1.25-2.42-2.62s1.18-2.46,3-2.46a9.41,9.41,0,0,1,1.83.25c.06.45.19,1.65.29,2.11Z"/><path class="cls-1" d="M57.06,15.45a2,2,0,0,1-.82.25c-1.22,0-1.87-.74-1.87-2.27V7.89H53.06L53,7.66l.52-.55h.87V5.51c.36-.38.92-.88,1.28-1.26l.29,0c0,.8-.06,1.9-.06,2.82h2.17a.6.6,0,0,1-.11.78H55.88v4.87c0,1.55.61,1.83,1.1,1.83a2.73,2.73,0,0,0,1.16-.3l.18.49Z"/><path class="cls-1" d="M18.37,1.72V0H33.7V1.76L31.45,2C29,2.35,28,3.48,28,5.94v.19c0,6.64,0,13.28,0,19.92A29,29,0,0,1,27.8,31a13.92,13.92,0,0,1-4.3,8.1c-4.68,4.3-10.08,4.84-15.87,2.74a9.62,9.62,0,0,1-4.78-4A16.41,16.41,0,0,1,0,30.43a3.19,3.19,0,0,1,3.42-3.64A3.05,3.05,0,0,1,6.1,29,3.25,3.25,0,0,1,5,32.14a3,3,0,0,1-2.62.49c1.51,3.72,3.84,6.42,7.83,7.34a11.09,11.09,0,0,0,9.18-1.6A10.88,10.88,0,0,0,24.3,29.3c.07-4.12.08-8.24.08-12.36,0-3.48,0-7,0-10.44a13.47,13.47,0,0,0-.21-2.11,2.27,2.27,0,0,0-1.92-2C21,2.16,19.68,2,18.37,1.72Z"/></g></g></svg>