<svg xmlns="http://www.w3.org/2000/svg" viewBox="0 0 76.74 53.56"><defs><style>.cls-1{fill:#fff;}</style></defs><g id="レイヤー_2" data-name="レイヤー 2"><g id="レイヤー_12" data-name="レイヤー 12"><path class="cls-1" d="M21.18,7c-.76.73-1.47,1.5-2.27,2.17s-1.83,1.37-2.75,2.05l-.87.45-1.36.72c-.31-.2-.6-.53-.93-.57a5.12,5.12,0,0,1-3.59-2A13.25,13.25,0,0,1,8.09,6.89l.48-.81c.38-.43.77-.86,1.15-1.3A5.17,5.17,0,0,0,10,8.11a4.3,4.3,0,0,0,5.51,2.1A4.4,4.4,0,0,0,18,5.64a4.1,4.1,0,0,0-4-3.53c-.34,0-.43-.2-.46-.48l2-1.17c.09.7.49,1.09,1.11,1.06s.9-.44.89-1.17c0-.12,0-.24,0-.35.45.35.94.67,1.35,1.06a6.1,6.1,0,0,1,2.17,4.32C21.09,5.92,21.14,6.46,21.18,7ZM18.82,2.36c-.62,0-.8.2-.81.61s.17.7.59.73a.58.58,0,0,0,.65-.65C19.22,2.77,18.93,2.52,18.82,2.36Z"/><path class="cls-1" d="M16.3.75c.12.17.43.44.46.74a.64.64,0,0,1-.71.71c-.45,0-.64-.35-.63-.79S15.63.74,16.3.75Z"/><path class="cls-1" d="M8.58,5a2.23,2.23,0,0,1,2.23-2.35,2.34,2.34,0,0,1,2.46,2.24,2.49,2.49,0,0,1-2.53,2.53A2.27,2.27,0,0,1,8.58,5Z"/><path d="M19.06,1.93V.12H34.47V1.91c-.67.06-1.31.12-2,.2-2.9.36-3.79,1.38-3.8,4.3,0,1.43,0,3.42,0,4.84,0,5.84,0,11.67,0,17.51a19.42,19.42,0,0,1-.85,5.81,7.6,7.6,0,0,1-5.64,5.34,31,31,0,0,1-12-.69,14.61,14.61,0,0,1-5.65-2.83C2.29,34.13-.34,31.52,0,28.66A2.8,2.8,0,0,1,1.9,26.2a3,3,0,0,1,3.27.66,2.86,2.86,0,0,1,.66,3.08,3,3,0,0,1-2,1.81,11.33,11.33,0,0,0,2.41,3,8.15,8.15,0,0,0,3.95,1.69c5.34.91,13.29-.09,14.13-2.68a20.3,20.3,0,0,0,.75-6.1c0-6.76,0-14.09,0-20.85a14.22,14.22,0,0,0-.2-2.16A2.36,2.36,0,0,0,23,2.53c-1.08-.24-2.17-.38-3.26-.56A6.23,6.23,0,0,0,19.06,1.93Z"/><path d="M43.5,33.25H42.13q-1.85-7.32-9.36-7.33a9,9,0,0,0-8,4.34,15.61,15.61,0,0,0-2.23,8.61,13.42,13.42,0,0,0,2.07,7.53,10.53,10.53,0,0,0,4.55,3.9,9.81,9.81,0,0,0,4,.85q7.72,0,10.33-8.22l1.49.64Q43.46,48.7,40.69,51a12,12,0,0,1-7.94,2.54A12.41,12.41,0,0,1,23,49.3,15.13,15.13,0,0,1,19.4,38.91a16.48,16.48,0,0,1,2.49-9.12,12.42,12.42,0,0,1,5.85-4.94,13,13,0,0,1,4.88-.94,14.79,14.79,0,0,1,7.33,2,3.12,3.12,0,0,0,1.32.47c.43,0,.72-.59.89-1.76H43.5Z"/><path d="M44.42,16.42a1.42,1.42,0,0,1-.91-.36,1.83,1.83,0,0,1-.46-.87,6,6,0,0,1-2.31,1.23,2.35,2.35,0,0,1-2.34-2.36A2,2,0,0,1,40,12.14a15.66,15.66,0,0,0,3-1.25V10.5c0-1.36-.69-2.15-1.69-2.15a1.11,1.11,0,0,0-.9.44A4.07,4.07,0,0,0,39.9,10a.54.54,0,0,1-.56.44.93.93,0,0,1-.85-.84c0-.27.25-.5.64-.77A7.94,7.94,0,0,1,41.9,7.52,2.69,2.69,0,0,1,43.51,8a2.64,2.64,0,0,1,1,2.23V14c0,.89.33,1.16.68,1.16a1.47,1.47,0,0,0,.69-.22l.19.54ZM43,11.56c-.42.21-1.34.61-1.79.81-.73.32-1.17.69-1.17,1.4a1.4,1.4,0,0,0,1.39,1.48A2.55,2.55,0,0,0,43,14.56Z"/><path d="M53.41,10c-.34-1.11-.84-1.88-2-1.88A1.17,1.17,0,0,0,50.2,9.41c0,.82.56,1.21,1.64,1.71,1.65.79,2.48,1.36,2.48,2.63,0,1.77-1.62,2.67-3.14,2.67a5,5,0,0,1-2.28-.53c-.1-.56-.27-1.62-.35-2.25l.56-.1c.34,1.23,1,2.23,2.36,2.23a1.29,1.29,0,0,0,1.35-1.31c0-.86-.52-1.31-1.54-1.81C49.93,12,48.84,11.39,48.84,10s1.19-2.48,3-2.48a9.66,9.66,0,0,1,1.84.25c.06.46.19,1.68.29,2.14Z"/><path d="M60.87,16.17a1.81,1.81,0,0,1-.82.25c-1.23,0-1.89-.75-1.89-2.28V8.54H56.84l-.08-.23.52-.56h.88V6.14c.37-.39.92-.89,1.29-1.27l.29,0c0,.8-.06,1.92-.06,2.84h2.19a.59.59,0,0,1-.11.79H59.68v4.92c0,1.56.62,1.85,1.12,1.85A2.67,2.67,0,0,0,62,15l.17.5Z"/><path d="M56.9,43.79a1.4,1.4,0,0,1-.91-.37,1.8,1.8,0,0,1-.46-.86,6.06,6.06,0,0,1-2.3,1.23,2.35,2.35,0,0,1-2.35-2.36,2,2,0,0,1,1.58-1.93,14.58,14.58,0,0,0,3-1.25v-.38c0-1.37-.69-2.15-1.69-2.15a1.11,1.11,0,0,0-.9.44,4.07,4.07,0,0,0-.52,1.25.54.54,0,0,1-.56.44A.93.93,0,0,1,51,37c0-.27.25-.5.63-.77a8.12,8.12,0,0,1,2.77-1.34A2.53,2.53,0,0,1,57,37.64v3.71c0,.88.33,1.15.68,1.15a1.46,1.46,0,0,0,.69-.21l.19.54Zm-1.41-4.86c-.42.21-1.34.61-1.78.8-.73.33-1.18.7-1.18,1.41a1.4,1.4,0,0,0,1.39,1.48,2.55,2.55,0,0,0,1.57-.69Z"/><path d="M65.9,37.41c-.35-1.12-.85-1.89-2-1.89a1.17,1.17,0,0,0-1.2,1.25c0,.83.56,1.21,1.64,1.71,1.65.79,2.48,1.37,2.48,2.64a2.86,2.86,0,0,1-3.13,2.67,5,5,0,0,1-2.29-.54c-.1-.56-.27-1.61-.35-2.25l.56-.09c.34,1.23,1,2.23,2.36,2.23a1.29,1.29,0,0,0,1.35-1.31c0-.87-.52-1.31-1.54-1.81-1.34-.65-2.44-1.27-2.44-2.65s1.19-2.48,3-2.48a9.54,9.54,0,0,1,1.84.25c.06.46.2,1.67.29,2.13Z"/><path d="M76.64,41.93a4.39,4.39,0,0,1-3.19,1.86,3.84,3.84,0,0,1-3.77-4.13,5,5,0,0,1,1.25-3.37,4,4,0,0,1,2.87-1.4,3,3,0,0,1,2.94,3c0,.38-.08.56-.39.63s-2.84.25-5.13.33c-.06,2.58,1.52,3.63,2.88,3.63a3.22,3.22,0,0,0,2.23-1Zm-3.3-6.31c-.89,0-1.75.83-2,2.38,1.07,0,2.15,0,3.28,0,.35,0,.47-.1.47-.39A1.79,1.79,0,0,0,73.34,35.62Z"/></g></g></svg>