<svg xmlns="http://www.w3.org/2000/svg" viewBox="0 0 74.36 58"><defs><style>.cls-1{fill:#f66;}</style></defs><g id="レイヤー_2" data-name="レイヤー 2"><g id="レイヤー_12" data-name="レイヤー 12"><path class="cls-1" d="M54.54,46.18a1.4,1.4,0,0,1-.9-.37,1.85,1.85,0,0,1-.46-.86,6,6,0,0,1-2.31,1.23,2.36,2.36,0,0,1-2.34-2.37,2,2,0,0,1,1.58-1.92,15.26,15.26,0,0,0,3-1.24v-.39c0-1.36-.69-2.15-1.69-2.15a1.11,1.11,0,0,0-.9.44A4.07,4.07,0,0,0,50,39.8a.54.54,0,0,1-.56.44.92.92,0,0,1-.84-.84c0-.27.25-.5.63-.77A8.31,8.31,0,0,1,52,37.28,2.53,2.53,0,0,1,54.62,40v3.71c0,.88.33,1.15.67,1.15a1.58,1.58,0,0,0,.69-.21l.2.54Zm-1.4-4.86c-.42.21-1.34.61-1.78.8-.73.33-1.18.7-1.18,1.41A1.4,1.4,0,0,0,51.57,45a2.49,2.49,0,0,0,1.57-.69Z"/><path class="cls-1" d="M63.53,39.8c-.35-1.11-.84-1.88-2-1.88a1.17,1.17,0,0,0-1.19,1.25c0,.82.56,1.21,1.64,1.71,1.65.78,2.47,1.36,2.47,2.63a2.86,2.86,0,0,1-3.13,2.67A5,5,0,0,1,59,45.64c-.1-.56-.27-1.61-.35-2.25l.56-.09c.34,1.22,1,2.22,2.36,2.22a1.28,1.28,0,0,0,1.35-1.3c0-.87-.52-1.31-1.54-1.81C60.05,41.76,59,41.14,59,39.76s1.19-2.48,3-2.48a10.71,10.71,0,0,1,1.84.25c.06.46.19,1.68.29,2.14Z"/><path class="cls-1" d="M74.27,44.31a4.39,4.39,0,0,1-3.19,1.87,3.84,3.84,0,0,1-3.77-4.13,4.9,4.9,0,0,1,1.25-3.36,3.92,3.92,0,0,1,2.86-1.41,3,3,0,0,1,2.94,3c0,.39-.08.56-.38.64s-2.85.24-5.13.32c-.06,2.58,1.52,3.63,2.88,3.63a3.26,3.26,0,0,0,2.23-1ZM71,38c-.88,0-1.75.83-2,2.39,1.07,0,2.15,0,3.28-.06.35,0,.46-.1.46-.39A1.79,1.79,0,0,0,71,38Z"/><path class="cls-1" d="M38.35,34.13A8,8,0,0,0,33,30.43a10.86,10.86,0,0,0-7.1.75c-2.59,1.24-3.95,3.53-4.85,6.07a16.35,16.35,0,0,0-1,4.67c-.21,4.61.9,8.8,4.85,11.7A10.28,10.28,0,0,0,37.77,53a11.08,11.08,0,0,0,1.67-2.35,3.31,3.31,0,0,0,.23-1C37.75,49,37,48.28,36.94,46.76A2.8,2.8,0,0,1,39.35,44a2.6,2.6,0,0,1,3,2,7.65,7.65,0,0,1-.11,2.61,12,12,0,0,1-3.68,6.7A10.87,10.87,0,0,1,32,57.92c-4,.35-7.62-.47-10.61-3.32a13.91,13.91,0,0,1-4.2-8.08,18.21,18.21,0,0,1,1.28-10.78c3.19-6.83,10.82-9.49,17.83-6.3a11.82,11.82,0,0,1,5.8,5.05,3.47,3.47,0,0,1-.71,4.24,2.66,2.66,0,0,1-4-.84A2.59,2.59,0,0,1,38.35,34.13Z"/><path class="cls-1" d="M40.09,15.83a1.45,1.45,0,0,1-.91-.37,1.85,1.85,0,0,1-.46-.86,6.06,6.06,0,0,1-2.3,1.23,2.36,2.36,0,0,1-2.35-2.37,2,2,0,0,1,1.58-1.92,15.26,15.26,0,0,0,3-1.24V9.91c0-1.36-.69-2.15-1.69-2.15a1.11,1.11,0,0,0-.9.44,4.33,4.33,0,0,0-.52,1.25.53.53,0,0,1-.55.44.92.92,0,0,1-.85-.84c0-.27.25-.5.63-.77a8.22,8.22,0,0,1,2.77-1.35,2.67,2.67,0,0,1,1.61.52,2.64,2.64,0,0,1,1,2.23v3.71c0,.88.33,1.15.67,1.15a1.58,1.58,0,0,0,.7-.21l.19.54ZM38.68,11c-.42.21-1.34.61-1.78.8-.73.33-1.17.7-1.17,1.41a1.39,1.39,0,0,0,1.38,1.47A2.49,2.49,0,0,0,38.68,14Z"/><path class="cls-1" d="M49.07,9.45c-.34-1.11-.84-1.88-2-1.88a1.16,1.16,0,0,0-1.19,1.25c0,.82.55,1.21,1.63,1.71,1.65.78,2.48,1.36,2.48,2.63a2.87,2.87,0,0,1-3.13,2.67,5,5,0,0,1-2.29-.54c-.1-.56-.27-1.61-.35-2.25l.56-.09c.35,1.22,1,2.22,2.36,2.22a1.28,1.28,0,0,0,1.35-1.3c0-.87-.52-1.31-1.54-1.81-1.34-.65-2.44-1.27-2.44-2.65s1.19-2.48,3-2.48a10.41,10.41,0,0,1,1.84.25c.06.46.19,1.68.29,2.14Z"/><path class="cls-1" d="M57.52,15.58a1.94,1.94,0,0,1-.82.25c-1.23,0-1.88-.75-1.88-2.29V8H53.49l-.08-.23.52-.56h.89V5.55c.36-.38.92-.88,1.28-1.27l.29,0c0,.81-.06,1.92-.06,2.84h2.19a.6.6,0,0,1-.11.79H56.33v4.92c0,1.55.62,1.84,1.12,1.84a2.67,2.67,0,0,0,1.17-.31l.17.5Z"/><path class="cls-1" d="M18.52,1.74V0H34V1.78l-2.28.27c-2.45.32-3.44,1.46-3.45,3.94v.19c0,6.69,0,13.38,0,20.08a29.48,29.48,0,0,1-.21,5,14,14,0,0,1-4.34,8.17c-4.71,4.33-10.16,4.88-16,2.76a9.78,9.78,0,0,1-4.82-4A16.66,16.66,0,0,1,0,30.68,3.22,3.22,0,0,1,3.47,27a3.07,3.07,0,0,1,2.68,2.22A3.28,3.28,0,0,1,5,32.4a3.1,3.1,0,0,1-2.64.5c1.52,3.75,3.87,6.47,7.89,7.4a11.2,11.2,0,0,0,9.25-1.62,10.91,10.91,0,0,0,5-9.14c.08-4.15.08-8.31.09-12.46q0-5.26,0-10.53a12.69,12.69,0,0,0-.2-2.13,2.29,2.29,0,0,0-1.93-2Z"/></g></g></svg>