<svg xmlns="http://www.w3.org/2000/svg" viewBox="0 0 84 96.43"><defs><style>.cls-1{fill:#606060;}.cls-2{fill:#fff;}</style></defs><g id="レイヤー_2" data-name="レイヤー 2"><g id="レイヤー_9" data-name="レイヤー 9"><path class="cls-1" d="M77.42,9.74a56.28,56.28,0,0,1-4,6.29c-6.64,8.33-15.17,14.45-24.2,19.89a100.37,100.37,0,0,1-27.11,11.8A2.25,2.25,0,0,0,20.84,49a4.57,4.57,0,0,1-4.05,3.18,4.5,4.5,0,0,1-4.45-2.56,2.56,2.56,0,0,0-1.47-1C5.67,47.27,4,44.05,6,39c1.65-4.15,4.5-7.45,7.61-10.55,9.31-9.28,20.24-16.2,32.08-21.77a3,3,0,0,0,2-2.42A4,4,0,0,1,54,1.91a2.5,2.5,0,0,0,2.73.42C61.69.79,66.68-.47,71.93.17,76.62.74,78.87,3.91,77.42,9.74ZM33,23a8.43,8.43,0,0,0,2,7.05c.79,1,1.53,1.33,2.75.58Q43.3,27.25,49,24c1.23-.71,1.28-1.51.81-2.7a8.87,8.87,0,0,0-8.69-5.66C37.26,15.87,34.08,18.5,33,23ZM50.23,9.63c-1.41-1.9-2.7-1.76-4.28-.87-2.52,1.44-5.21,2.61-7.74,4.05C28.94,18.07,20.15,24,13.07,32.1a32.71,32.71,0,0,0-5.35,8.33c-1.56,3.58.21,5.78,3.81,6L15,42.93c-2.54-1.77-3.08-3.38-1.57-6.25a19,19,0,0,1,3.75-5.29c4.27-3.85,8.79-7.41,13.19-11.11a20.2,20.2,0,0,0,2.59-2.47,12.82,12.82,0,0,1,6.3-4.08C42.91,12.52,46.52,11,50.23,9.63Zm17.34,9.85c3.08-3,6-6.23,7.75-10.29s.32-6.45-4-7A4.2,4.2,0,0,0,70,2.08c-4,.64-8,1.35-12,2-1.84.29-2.68,1.26-2.52,3.26a12.65,12.65,0,0,1,1.77-.48c3.09-.45,6.2-1.22,9.29-1.2,3.33,0,4.74,2.67,3.57,5.77a7.29,7.29,0,0,1-.76,1.65C68.1,15,66.44,16.76,67.57,19.48ZM21,45.94C37.52,41.44,52,33,65.06,22c-2.53-1.41-3.91.27-5.5,1.55-2.13,1.71-4.4,3.24-6.54,4.92a20.39,20.39,0,0,0-2.87,2.7A11.4,11.4,0,0,1,43,35.17,9.74,9.74,0,0,0,40.3,36c-6.85,3.4-13.78,6.53-21.57,7.42ZM31.19,23.19l-.67-.51c-4.76,3.36-9.36,6.9-13.07,11.45A16.76,16.76,0,0,0,15.05,38c-.87,2-.23,3,1.94,3.23,3.86.33,7.43-.88,11-2.38a7,7,0,0,0-3-1.29c-1.32-.13-2.76.15-3.57-1.22s-.11-2.81.85-3.8c2.21-2.31,4.63-4.43,6.89-6.7A21.24,21.24,0,0,0,31.19,23.19Zm14.26-9.37.12.86a23,23,0,0,0,3.24-.48c3.2-.92,6.33-2.07,9.55-2.84a3.75,3.75,0,0,1,3.09.89c.6.63.41,2,.56,3,.36-.11,1.05-.57,1.61-.45,2.19.48,3.09-1,3.78-2.51.52-1.14,1.25-3,.75-3.6-.66-.85-2.45-1.22-3.7-1.13C57.61,8.1,51.52,11,45.45,13.82Zm14.43-.24c-3.9-.27-7.23,1.32-10.05,2.47l2.82,5.32C55.28,19.23,58.21,17.1,59.88,13.58Zm-29.51,14c-2.44,2-5.45,4.13-6.93,7.81,1-.08,2.11-.32,2.4-1,1.29-2.83,3.45-3.59,6.13-2a5,5,0,0,0,1.9.29l-.57-.06Zm30-10.2c-2.19,1.89-4.32,3.86-6.6,5.65-1.05.83-1.68,1.62-1.21,3.21,2-1.55,3.95-3.1,6-4.53C60.14,20.57,61.35,19.38,60.41,17.38ZM39.24,32.74c2.82,1,10.73-3.82,10.73-6.37ZM17.13,45.31A2.44,2.44,0,0,0,15.71,50a2.42,2.42,0,0,0,3.1-1.7A2.39,2.39,0,0,0,17.13,45.31ZM50.55,7.12c1.92.31,2.82-.25,3.07-1.48A1.92,1.92,0,0,0,52,3.19a1.82,1.82,0,0,0-2.41,1.57C49.56,5.62,50.3,6.53,50.55,7.12ZM31.73,35.82c-.85-1-1.31-1.93-1.86-2A2.22,2.22,0,0,0,28.06,35a2.15,2.15,0,0,0,1.18,1.78C29.77,37,30.58,36.32,31.73,35.82Zm6.33-1c-2.78-1.51-4.6-.63-4.92,2.3Zm27.86-16c-.8-.93-1.14-1.68-1.64-1.81a1.68,1.68,0,0,0-1.46.84,1.69,1.69,0,0,0,.72,1.51C64,19.52,64.74,19.1,65.92,18.8Z"/><path class="cls-1" d="M13.93,79.72c-2.59-2.9-5.09-3.62-7.65-2.31a5.8,5.8,0,0,0-3,6.29A5.5,5.5,0,0,0,8.5,88.27c2.54.19,4.28-.94,5.24-3.68H8.49v-3H17A8.15,8.15,0,0,1,11.73,91a8.85,8.85,0,0,1-11-4.9A9,9,0,0,1,4.93,74.51,8.88,8.88,0,0,1,16.5,78.13Z"/><path class="cls-1" d="M51.17,89.84c-3.48,2.34-6.78,2.06-9.2-.64a7.72,7.72,0,0,1-.14-9.79A6.53,6.53,0,0,1,50.41,78l4.09-1V91C51.77,91.4,51.74,91.39,51.17,89.84ZM47.42,88.5a4.19,4.19,0,0,0,4.17-4.14A4.26,4.26,0,0,0,47.48,80a4.28,4.28,0,0,0-.06,8.55Z"/><path class="cls-1" d="M29.61,77.92,33,77V91c-1.21-.06-2.72,1-3.23-1.15-3.71,2.3-7,2-9.36-.83a7.81,7.81,0,0,1,.11-9.79c2.32-2.59,5.85-2.9,9.08-.8Zm.46,6.37A4.13,4.13,0,0,0,26.13,80,4.28,4.28,0,0,0,26,88.5,4.08,4.08,0,0,0,30.07,84.29Z"/><path class="cls-1" d="M73.2,96.17a43,43,0,0,0,1.7-4.36,4.6,4.6,0,0,0,0-2.75C73.33,85.2,71.64,81.41,70,77.57c3.1-.65,3.1-.65,4.2,2l2.91,7,2.65-6.85C80.82,77,80.82,77,84,77.5c-.78,1.93-1.55,3.81-2.31,5.7-1.47,3.63-3.07,7.21-4.35,10.91C76.62,96.19,75.51,96.85,73.2,96.17Z"/><path class="cls-1" d="M64.63,84.13l5,6.75c-4.18,1.61-5-2.1-7-4.18-1.92,2-2.69,5.81-6.91,4.17l4.87-6.74L55.9,77.6c4-1.65,4.87,1.89,6.74,3.94,1.89-1.86,2.6-5.6,6.67-3.93C67.75,79.77,66.22,81.92,64.63,84.13Z"/><path class="cls-1" d="M38.44,73.75V91.06H35.38V73.75Z"/><path class="cls-2" d="M47.42,88.5A4.28,4.28,0,0,1,47.48,80a4.26,4.26,0,0,1,4.11,4.41A4.19,4.19,0,0,1,47.42,88.5Z"/><path class="cls-2" d="M30.07,84.29A4.08,4.08,0,0,1,26,88.5,4.28,4.28,0,0,1,26.13,80,4.13,4.13,0,0,1,30.07,84.29Z"/></g></g></svg>