<svg xmlns="http://www.w3.org/2000/svg" viewBox="0 0 80.19 93.53"><defs><style>.cls-1{fill:#606060;}.cls-2{fill:#fff;}</style></defs><g id="レイヤー_2" data-name="レイヤー 2"><g id="レイヤー_9" data-name="レイヤー 9"><path class="cls-1" d="M47.11,90.28c.84-3,1.49-5.4,2.17-7.78.3-1.06.23-2.2,2-2.28S53.6,81,54,82.49c.69,2.43,1.52,4.81,2.47,7.75.92-3,1.79-5.43,2.38-7.93.46-1.94,1.47-2.42,3.51-1.73C61.67,82.7,61,84.83,60.25,87c-.47,1.44-1,2.86-1.39,4.33s-1.08,1.91-2.59,1.94-2-.76-2.32-2c-.67-2.38-1.44-4.73-2.35-7.66-.83,3-1.56,5.36-2.15,7.8-.27,1.13-.55,1.87-2,1.82s-2.28-.08-2.78-1.68c-1.14-3.66-2.53-7.24-3.85-11,2.08-.62,3.24-.27,3.75,1.9C45.2,84.93,46.14,87.31,47.11,90.28Z"/><path class="cls-1" d="M9.48,87.85H2.86V93H0V80.47H2.74v5H9.32v-5h2.91V93H9.48Z"/><path class="cls-1" d="M74.6,85.52V87.7h-8c.1,2.93.1,2.93,7.94,3.35l.1,2c-2.42,0-4.7.14-6.93-.07a5.05,5.05,0,0,1-2.89-1.42c-2.14-2.18-1.92-4.93-1.21-7.59.62-2.36,2.47-3.43,4.8-3.56,2-.11,4,0,6.12,0l.12,1.75c-2.66,1.38-6.86-1.53-8.31,3.37Z"/><path class="cls-1" d="M14.86,80.41h2.81c0,2.57,0,5,0,7.5s.88,3.4,3.1,3.42S24,90.42,24,87.8c0-2.41,0-4.82,0-7.36h2.83c0,3.16.15,6.26-.09,9.33a4,4,0,0,1-1.91,2.69,8.48,8.48,0,0,1-8,0A3.75,3.75,0,0,1,15,90C14.72,86.84,14.86,83.67,14.86,80.41Z"/><path class="cls-1" d="M42.37,92.93c-2,.46-3.43.52-4-1.75-.11-.44-.93-.88-1.48-1a26.51,26.51,0,0,0-2.68-.06c-1.58-.13-2.67.12-3.29,1.93-.25.73-1.84,1-2.81,1.47l-.43-.64c1.82-4,3.6-8,5.49-11.93.51-1.08,3.15-1,3.68.11C38.73,85,40.5,88.9,42.37,92.93ZM37,87.79l-2.11-5c-.75,1.81-1.35,3.27-2,5Z"/><path class="cls-1" d="M77.37,80.39c.72,0,1.2-.08,1.68-.08.33,0,.67.07,1.14.12V93H77.37Z"/><path class="cls-2" d="M37,87.79H32.84c.7-1.68,1.3-3.14,2-5Z"/><path class="cls-1" d="M37.08,41.73c-5.52-8.6-11.29-17.1-13.93-27.19C21.4,7.84,24.7,2.34,30.94.38,33.72-.49,35.34,0,36,2.89c.82,3.64,2.12,7.28,2.25,11,.33,9.19.11,18.4.11,27.6Z"/><path class="cls-1" d="M43.24,42.3A9.49,9.49,0,0,1,42.38,40c-.3-11.37-1.33-22.79,1.51-34,.53-2.1,2-5.74,2.78-5.68A15.84,15.84,0,0,1,54.62,3.2c3.51,2.68,4.11,6.87,3.06,11C55.07,24.46,49.26,33.11,43.24,42.3Z"/><path class="cls-1" d="M13.74,10.06c5,7.74,9.85,15.09,14.48,22.58a81.08,81.08,0,0,1,5.71,11.55c-8.55-4.07-17.09-8.06-23.77-14.86C5.24,24.31,6.58,16.91,13.74,10.06Z"/><path class="cls-1" d="M46,43.6C52.9,32.43,59.8,21.26,66.8,10c8.86,7.9,8.77,16.46,0,22.7-6.18,4.4-12.86,8.1-19.32,12.12Z"/><path class="cls-1" d="M31.19,47.91c-4.8,0-9.6,0-14.41,0C6.23,47.88.6,41.3,2.26,30.06L31.62,47Z"/><path class="cls-1" d="M78.43,30c1.83,10.87-3.86,17.79-14,17.86A84.33,84.33,0,0,1,49.15,47Z"/><path class="cls-1" d="M49.62,51H71.06C67.87,59.79,60.84,59.69,49.62,51Z"/><path class="cls-1" d="M30.78,51.16c-10.47,8.5-16.81,8.66-21.34,0Z"/></g></g></svg>