<svg xmlns="http://www.w3.org/2000/svg" viewBox="0 0 83.1 99.88"><defs><style>.cls-1{fill:#606060;}</style></defs><g id="レイヤー_2" data-name="レイヤー 2"><g id="レイヤー_9" data-name="レイヤー 9"><path class="cls-1" d="M6.94,86.57c-.35-1.9,1.14-3.69,3.36-4A3.06,3.06,0,0,1,9.73,85,3.44,3.44,0,0,1,6.94,86.57Z"/><path class="cls-1" d="M28.33,99.5h-2.6c0-.24,0-.44,0-.64q0-7.26,0-14.52c0-.5.12-.72.63-.73,1.8,0,3.61-.17,5.4,0A4.37,4.37,0,0,1,36,87.63a5,5,0,0,1-3.3,5.4,8.92,8.92,0,0,1-3.87.42l-.47,0Zm0-13.87v5.63A5.24,5.24,0,0,0,31.67,91a2.7,2.7,0,0,0,1.65-2.44,2.41,2.41,0,0,0-1.1-2.47A5.4,5.4,0,0,0,28.35,85.63Z"/><path class="cls-1" d="M59.89,93.67c0,2.13-.62,4-2.54,5.24a5.62,5.62,0,0,1-8.78-4.53c-.14-2.45.56-4.6,2.77-5.94A5.62,5.62,0,0,1,59.88,93C59.9,93.21,59.89,93.44,59.89,93.67Zm-8.81,0,.16,0A5,5,0,0,0,52,96.57a2.47,2.47,0,0,0,4.33,0,5.25,5.25,0,0,0,.28-5.29,2.56,2.56,0,0,0-2.36-1.57,2.38,2.38,0,0,0-2.35,1.45A21.8,21.8,0,0,0,51.08,93.67Z"/><path class="cls-1" d="M13.46,88.17a14.75,14.75,0,0,0-1.25,1.4,3.58,3.58,0,0,0,1.14,5.1c.43.26.56.51.3.93-.68,1.06-1.3,2.16-2.06,3.16a2,2,0,0,1-2.6.52,3.88,3.88,0,0,0-3.48,0,2.1,2.1,0,0,1-2.66-.51A9.87,9.87,0,0,1,.14,90.29a4.3,4.3,0,0,1,4.28-3.63,2.41,2.41,0,0,1,1,.21,3.45,3.45,0,0,0,3.27,0,3.55,3.55,0,0,1,3.25.13A13.58,13.58,0,0,1,13.46,88.17Z"/><path class="cls-1" d="M47.17,99.49H44.56v-.71c0-2,0-4,0-5.92a5.36,5.36,0,0,0-.09-1.06,2.17,2.17,0,0,0-2-1.91A2.34,2.34,0,0,0,40,91.56a8,8,0,0,0-.26,2c0,1.7,0,3.41,0,5.11v.78H37.18V82.76h2.53V89.5l.52-.57a4.17,4.17,0,0,1,5.87,0,4.78,4.78,0,0,1,1,2.69,8.39,8.39,0,0,1,0,1.12Z"/><path class="cls-1" d="M83.08,94.41H75.53A2.85,2.85,0,0,0,78,97.65a8.06,8.06,0,0,0,3.45-.27l.62-.17c.14.53.29,1,.39,1.56a.5.5,0,0,1-.21.38c-1.86,1.17-6.14.7-7.74-.82a5.67,5.67,0,0,1-1.69-4.16,6.21,6.21,0,0,1,2-5.28,5.12,5.12,0,0,1,5.45-.8c1.89.75,2.56,2.38,2.78,4.25A20.25,20.25,0,0,1,83.08,94.41Zm-2.51-1.92c.06-1.79-1-3-2.57-2.88a2.69,2.69,0,0,0-2.47,2.88Z"/><path class="cls-1" d="M71.48,99.5h-2.7v-.7c0-1.93,0-3.87,0-5.8a7,7,0,0,0-.12-1.3,2.07,2.07,0,0,0-1.75-1.79,2.32,2.32,0,0,0-2.46,1.22A4.89,4.89,0,0,0,64,93c-.05,1.93,0,3.87,0,5.8v.72H61.36V88h2.22l.15,1.53a1.5,1.5,0,0,0,.23-.17,4.24,4.24,0,0,1,4.72-1.4,3.14,3.14,0,0,1,2.5,2.81C71.41,93.64,71.4,96.55,71.48,99.5Z"/><path class="cls-1" d="M23.35,99.5H20.84V88h2.51Z"/><path class="cls-1" d="M22.06,83a1.52,1.52,0,0,1,1.64,1.5,1.58,1.58,0,0,1-1.64,1.64,1.55,1.55,0,0,1-1.58-1.58A1.51,1.51,0,0,1,22.06,83Z"/><path class="cls-1" d="M66.33,21.06A14.41,14.41,0,0,0,68.18,46.5C65.7,52.05,62.9,57.36,58.13,61.33a6.91,6.91,0,0,1-8,1,14.45,14.45,0,0,0-14-.06,7.48,7.48,0,0,1-9-1.41c-5.51-5.14-8.73-11.62-10.52-18.84-1.36-5.48-1.61-11,.33-16.4,2.35-6.59,8.75-11.18,15.26-10.8A14.18,14.18,0,0,1,37.07,16a14.12,14.12,0,0,0,11.56,0C55.52,13.24,61.63,15.11,66.33,21.06Z"/><path class="cls-1" d="M53.3,0c1.39,7.05-4.64,14.53-12,15.05C39.33,9.07,45.62,1.11,53.3,0Z"/></g></g></svg>