<svg xmlns="http://www.w3.org/2000/svg" viewBox="0 0 31.44 25.72"><defs><style>.cls-1{fill:#686868;}</style></defs><g id="レイヤー_2" data-name="レイヤー 2"><g id="レイヤー_9" data-name="レイヤー 9"><path class="cls-1" d="M31.16,7.44A8.11,8.11,0,0,0,25.37.74a7.9,7.9,0,0,0-8.62,2.32c-.78.85-1.09.82-1.82-.05A7.88,7.88,0,0,0,6.77.22,8.08,8.08,0,0,0,.48,6.15C.32,6.67.4,7.27,0,7.72V9.16c.37.32.32.8.42,1.21a8.14,8.14,0,0,0,2.41,4C7,18.15,11,21.94,15.12,25.72h.24A32.78,32.78,0,0,1,19.71,22c2.64-2.18,5.28-4.38,8-6.43a8.79,8.79,0,0,0,3.43-5.66c0-.27,0-.57.27-.76V8.44C31.11,8.17,31.22,7.78,31.16,7.44Zm-3.87,5.78c-3.77,3.21-7.68,6.26-11.52,9.38-.45.37-.76.25-1.14-.1-3.61-3.33-7.26-6.62-10.84-10A5.51,5.51,0,0,1,2.17,8.65,6.5,6.5,0,0,1,7.65,2.06a6.38,6.38,0,0,1,6.9,4.19c.2.56.3,1.15.46,1.73.09.36.2.69.68.7s.64-.25.75-.63.27-1,.44-1.49a6.36,6.36,0,0,1,11.84-.37A6,6,0,0,1,27.29,13.22Z"/></g></g></svg>