<svg xmlns="http://www.w3.org/2000/svg" viewBox="0 0 20.4 28.51"><defs><style>.cls-1{fill:none;stroke:#000;stroke-miterlimit:10;stroke-width:2px;}</style></defs><g id="レイヤー_2" data-name="レイヤー 2"><g id="レイヤー_12" data-name="レイヤー 12"><path class="cls-1" d="M1,27.51a69.82,69.82,0,0,1,.18-7.8,6.75,6.75,0,0,1,6.59-5.56q2.46,0,4.92,0a7,7,0,0,1,6.64,6.39c.11,2.32,0,4.65,0,7Z"/><path class="cls-1" d="M10.91,1a6.62,6.62,0,0,1,2.74,1.14A5.18,5.18,0,1,1,5.31,7,5.14,5.14,0,0,1,9.67,1.1,1.62,1.62,0,0,0,9.85,1Z"/></g></g></svg>