<svg xmlns="http://www.w3.org/2000/svg" viewBox="0 0 84.62 106.5"><defs><style>.cls-1{fill:#606060;}.cls-2{fill:#fff;}</style></defs><g id="レイヤー_2" data-name="レイヤー 2"><g id="レイヤー_9" data-name="レイヤー 9"><path class="cls-1" d="M76.7,89.14H81a.23.23,0,0,1,.26.17c.16.39.34.78.51,1.17l1,2.4c0,.05.09.13.13.13h1.66c-.05-.1-.08-.18-.11-.25-.7-1.61-1.41-3.21-2.11-4.81-1.1-2.51-2.19-5-3.29-7.54a.17.17,0,0,0-.19-.12c-.36,0-.73,0-1.09,0a.54.54,0,0,0-.63.4Q74.67,86.36,72.11,92c-.15.32-.29.64-.44,1h1.54a.32.32,0,0,0,.36-.23q2.27-5.28,4.54-10.55l.09-.16,2.42,5.75h-.25c-.88,0-1.77,0-2.65,0-.35,0-.53.08-.64.41A7.67,7.67,0,0,1,76.7,89.14Z"/><path class="cls-1" d="M76.7,89.14a7.67,7.67,0,0,0,.38-.91c.11-.33.29-.42.64-.41.88,0,1.77,0,2.65,0h.25L78.2,82.08l-.09.16q-2.27,5.28-4.54,10.55a.32.32,0,0,1-.36.23H71.67c.15-.35.29-.67.44-1q2.55-5.67,5.09-11.34a.54.54,0,0,1,.63-.4c.36,0,.73,0,1.09,0a.17.17,0,0,1,.19.12c1.1,2.52,2.19,5,3.29,7.54.7,1.6,1.41,3.2,2.11,4.81,0,.07.06.15.11.25H83s-.11-.08-.13-.13l-1-2.4c-.17-.39-.35-.78-.51-1.17a.23.23,0,0,0-.26-.17H76.7Z"/><path class="cls-1" d="M49.28,82.47h4.37a6.45,6.45,0,0,1,.76,0,2.24,2.24,0,0,1,2.16,2.21,2.11,2.11,0,0,1-1.35,2.2,3.41,3.41,0,0,1-1.44.3H50.73v1.34H54a.42.42,0,0,1,.42.25c.89,1.64,1.8,3.28,2.7,4.92a.23.23,0,0,0,.24.14H59l-3.18-5.57.31-.13A3.1,3.1,0,0,0,58,86.34a4.15,4.15,0,0,0,.22-2.12,3.16,3.16,0,0,0-1.55-2.46,5,5,0,0,0-2.54-.64c-2.08,0-4.17,0-6.26,0h-.19V93.84h1.65Z"/><path class="cls-1" d="M17.74,81.15v12.7H19.4V82.43h.24c1.39,0,2.77,0,4.16,0a5.3,5.3,0,0,1,1.13.15,2,2,0,0,1,1.49,1.13,2.6,2.6,0,0,1,.22.86A2.13,2.13,0,0,1,26,86.49a2.77,2.77,0,0,1-1.88.71c-1,0-2.05,0-3.07,0h-.22v1.29H21c1.05,0,2.1,0,3.15,0a6.9,6.9,0,0,0,1.43-.17A3.22,3.22,0,0,0,28,86.42a4.21,4.21,0,0,0,.16-2.67,3.15,3.15,0,0,0-1.67-2.11,4.66,4.66,0,0,0-2.1-.49c-2.17,0-4.33,0-6.5,0Z"/><path class="cls-1" d="M42.35,81.13H32.46V93.85h10v-1.3H34.11V82.7c0-.25,0-.25.25-.25h8Z"/><path class="cls-1" d="M13.32,93.86,7.79,87.41l5.39-6.29H11a.39.39,0,0,0-.19.12c-.25.27-.48.55-.72.83L6.23,86.6.51,93.26l-.51.6H.22c.61,0,1.22,0,1.83,0a.37.37,0,0,0,.32-.15l3.44-4,.87-1,.14.15c1.31,1.52,2.63,3,3.93,4.59a1,1,0,0,0,.93.42C12.21,93.83,12.75,93.86,13.32,93.86Z"/><path class="cls-1" d="M64,81.15v12.7h1.63V81.15Z"/><path class="cls-1" d="M.18,81.12l4.4,5.12L5.69,85,2.44,81.19a.26.26,0,0,0-.16-.07Z"/><path class="cls-2" d="M32.68,103.22a1.72,1.72,0,0,0,.25,1,1.87,1.87,0,0,0,1.82.81,1.79,1.79,0,0,0,1.56-2.36A1.87,1.87,0,0,0,35,101.47a8.74,8.74,0,0,1-1-.34.92.92,0,0,1-.25-1.5,1,1,0,0,1,1.14-.3,1,1,0,0,1,.74.91c0,.05,0,.13.08.13a5.71,5.71,0,0,0,.59,0c0-.2-.06-.38-.11-.54a1.58,1.58,0,0,0-1.48-1.14,1.66,1.66,0,0,0-1.63.8,1.51,1.51,0,0,0,.57,2.18,4.34,4.34,0,0,0,.5.2,9.66,9.66,0,0,1,1.1.43,1,1,0,0,1,.53,1.11,1.14,1.14,0,0,1-.81,1,1.2,1.2,0,0,1-1.27-.26,1.34,1.34,0,0,1-.39-.92Z"/><path class="cls-1" d="M41.47,86.65H35.55v1.27h5.92Z"/><path class="cls-2" d="M36.86,102.65A2.36,2.36,0,0,0,39.15,105a2.38,2.38,0,1,0,.11-4.76A2.37,2.37,0,0,0,36.86,102.65Z"/><path class="cls-2" d="M42.72,104.91v-.29c0-.87,0-1.74.05-2.61a1.3,1.3,0,0,1,1.16-1.2,1.34,1.34,0,0,1,1.48.9,2.25,2.25,0,0,1,.11.68c0,.78,0,1.55,0,2.33v.18h.59v-.62a23.51,23.51,0,0,0,0-2.38,1.91,1.91,0,0,0-3-1.31,3.39,3.39,0,0,0-.36.33v-.54h-.57v4.53Z"/><path class="cls-2" d="M46.44,100.37l.07.19c.54,1.36,1.09,2.71,1.63,4.07a.36.36,0,0,1,0,.25c-.1.23-.21.46-.32.69s-.26.6-.41.93c.18,0,.32,0,.47,0a.19.19,0,0,0,.22-.15c.7-1.64,1.41-3.28,2.11-4.91.15-.35.29-.7.45-1.07h-.41c-.17,0-.25,0-.31.2-.41,1-.82,2-1.24,2.93-.06.14-.13.28-.2.45l-.14-.34-1.23-3.08c0-.06-.08-.15-.13-.15A5.14,5.14,0,0,0,46.44,100.37Z"/><path class="cls-1" d="M49.28,82.47V93.84H47.63V81.13h.19c2.09,0,4.18,0,6.26,0a5,5,0,0,1,2.54.64,3.16,3.16,0,0,1,1.55,2.46A4.15,4.15,0,0,1,58,86.34a3.1,3.1,0,0,1-1.82,1.81l-.31.13L59,93.85H57.33a.23.23,0,0,1-.24-.14c-.9-1.64-1.81-3.28-2.7-4.92a.42.42,0,0,0-.42-.25H50.73V87.22h3.05a3.41,3.41,0,0,0,1.44-.3,2.11,2.11,0,0,0,1.35-2.2,2.24,2.24,0,0,0-2.16-2.21,6.45,6.45,0,0,0-.76,0H49.28Z"/><path class="cls-1" d="M17.74,81.15h.17c2.17,0,4.33,0,6.5,0a4.66,4.66,0,0,1,2.1.49,3.15,3.15,0,0,1,1.67,2.11A4.21,4.21,0,0,1,28,86.42a3.22,3.22,0,0,1-2.45,1.93,6.9,6.9,0,0,1-1.43.17c-1.05,0-2.1,0-3.15,0h-.17V87.23H21c1,0,2.05,0,3.07,0A2.77,2.77,0,0,0,26,86.49a2.13,2.13,0,0,0,.65-1.91,2.6,2.6,0,0,0-.22-.86,2,2,0,0,0-1.49-1.13,5.3,5.3,0,0,0-1.13-.15c-1.39,0-2.77,0-4.16,0H19.4V93.85H17.74Z"/><path class="cls-1" d="M42.35,81.13v1.32h-8c-.25,0-.25,0-.25.25v9.85h8.32v1.3h-10V81.13Z"/><path class="cls-1" d="M13.32,93.86c-.57,0-1.11,0-1.64,0a1,1,0,0,1-.93-.42c-1.3-1.55-2.62-3.07-3.93-4.59l-.14-.15-.87,1-3.44,4a.37.37,0,0,1-.32.15c-.61,0-1.22,0-1.83,0H0l.51-.6L6.23,86.6l3.89-4.53c.24-.28.47-.56.72-.83a.39.39,0,0,1,.19-.12h2.15L7.79,87.41Z"/><path class="cls-1" d="M64,81.15h1.63v12.7H64Z"/><path class="cls-1" d="M.18,81.12h2.1a.26.26,0,0,1,.16.07L5.69,85,4.58,86.24Z"/><path d="M32.68,103.22h.61a1.34,1.34,0,0,0,.39.92,1.2,1.2,0,0,0,1.27.26,1.14,1.14,0,0,0,.81-1,1,1,0,0,0-.53-1.11,9.66,9.66,0,0,0-1.1-.43,4.34,4.34,0,0,1-.5-.2,1.51,1.51,0,0,1-.57-2.18,1.66,1.66,0,0,1,1.63-.8,1.58,1.58,0,0,1,1.48,1.14c0,.16.07.34.11.54a5.71,5.71,0,0,1-.59,0s-.07-.08-.08-.13a1,1,0,0,0-.74-.91,1,1,0,0,0-1.14.3.92.92,0,0,0,.25,1.5,8.74,8.74,0,0,0,1,.34,1.87,1.87,0,0,1,1.35,1.19A1.79,1.79,0,0,1,34.75,105a1.87,1.87,0,0,1-1.82-.81A1.72,1.72,0,0,1,32.68,103.22Z"/><path class="cls-1" d="M41.47,86.65v1.27H35.55V86.65Z"/><path d="M36.86,102.65a2.37,2.37,0,0,1,2.4-2.39,2.38,2.38,0,1,1-.11,4.76A2.36,2.36,0,0,1,36.86,102.65Zm2.35,1.82A1.76,1.76,0,0,0,41,102.65a1.78,1.78,0,1,0-1.78,1.82Z"/><path d="M42.72,104.91h-.57v-4.53h.57v.54a3.39,3.39,0,0,1,.36-.33,1.91,1.91,0,0,1,3,1.31,23.51,23.51,0,0,1,0,2.38v.62h-.59v-.18c0-.78,0-1.55,0-2.33a2.25,2.25,0,0,0-.11-.68,1.34,1.34,0,0,0-1.48-.9,1.3,1.3,0,0,0-1.16,1.2c-.05.87,0,1.74-.05,2.61Z"/><path d="M46.44,100.37a5.14,5.14,0,0,1,.56,0s.1.09.13.15l1.23,3.08.14.34c.07-.17.14-.31.2-.45.42-1,.83-2,1.24-2.93.06-.15.14-.23.31-.2h.41c-.16.37-.3.72-.45,1.07-.7,1.63-1.41,3.27-2.11,4.91a.19.19,0,0,1-.22.15c-.15,0-.29,0-.47,0,.15-.33.28-.63.41-.93s.22-.46.32-.69a.36.36,0,0,0,0-.25c-.54-1.36-1.09-2.71-1.63-4.07Z"/><path class="cls-2" d="M39.21,104.47A1.83,1.83,0,1,1,41,102.65,1.76,1.76,0,0,1,39.21,104.47Z"/><path class="cls-1" d="M30.47,30.82a13.92,13.92,0,0,0,1.32-.52c.56-.26,1.11-.54,1.66-.84-.55.3-1.1.58-1.66.84A13.92,13.92,0,0,1,30.47,30.82Z"/><path class="cls-1" d="M39.23,10.49c-1,0-2,0-3,0-.36,0-.72,0-1.07.09-1.17.21-2.32.45-3.48.68a1.29,1.29,0,0,0-1.8.13l-.12.63-2.16,1.27-1.91,1.25L23.4,16.76l-1.25,1.41h0l-.52.88L20.48,21a1.39,1.39,0,0,0,.14,1.43,7.36,7.36,0,0,0,3.21,3.06c.29.11.62.21.6.6l.11-.05c.3,0,.49.09.78.05h0a7.22,7.22,0,0,0,.83-.23c.62-.25,1.22-.53,1.83-.8l1.47-.78.94-.48c1-.74,2-1.44,3-2.24S35,20,35.84,19.17l3.57-3.77.12-.28a12.81,12.81,0,0,0,2.81-4.3l-1.8-.26C40.1,10.53,39.66,10.48,39.23,10.49Z"/><path class="cls-1" d="M26.86,31.89l2.27-.61,1.34-.46-1.34.46Z"/><path class="cls-1" d="M20.41,32l.07,0h0c-.23-.06-.45-.15-.67-.23A5.84,5.84,0,0,0,20.41,32Z"/><path class="cls-1" d="M20.65,32.06h.07l-.21,0Z"/><path class="cls-1" d="M11.36,30.22A4.38,4.38,0,0,1,11.05,29,4.38,4.38,0,0,0,11.36,30.22Z"/><path class="cls-1" d="M28.74,10.93h.51a4.58,4.58,0,0,0,.46-.2,1.58,1.58,0,0,0,.63-2.32A1.7,1.7,0,0,0,27.94,8a1.78,1.78,0,0,0-.62,1.82l.06.12A1.68,1.68,0,0,0,28.74,10.93Z"/><path class="cls-1" d="M42.34,10.82c.13-.46.25-.92.38-1.38a3.58,3.58,0,0,0,.14-1,3.58,3.58,0,0,1-.14,1C42.59,9.9,42.47,10.36,42.34,10.82Z"/><path class="cls-1" d="M41.82,5.86c-.16-.15-.29-.34-.45-.48C41.53,5.52,41.66,5.71,41.82,5.86Z"/><path class="cls-1" d="M50.2,20.46,47,21.35l-1.9.87a3.3,3.3,0,0,1-.07.56c-.48,1.35-1,2.68-1.57,4a17.8,17.8,0,0,1-3.58,4.84,17.87,17.87,0,0,1-3.85,2.58,19.32,19.32,0,0,1-2.1,1,4,4,0,0,1-.92.35c-.83.14-1.68.18-2.5.36a9.14,9.14,0,0,1-4.19.23,12.71,12.71,0,0,0-1.49-.31,14.25,14.25,0,0,1-4.91-1.39c-.38-.18-.65,0-.53.35.21.74.54,1.45.82,2.17.09.21.17.42.26.64.37.72.75,1.44,1.13,2.16h0l.5.52,2.3,2.65a1.25,1.25,0,0,1-.2.36,1.25,1.25,0,0,0,.2-.36l2.56,2c-.15.12-.28.26-.43.39.15-.13.28-.27.43-.39a21.59,21.59,0,0,0,8.75,3.18c0,.16.05.31.08.47,0-.16-.05-.31-.08-.47L41.18,48h0a1.51,1.51,0,0,1,.3-.1,18.48,18.48,0,0,0,8.16-3.37c.61-.45,1.21-.91,1.81-1.37,0,.19,0,.39,0,.58,0-.19,0-.39,0-.58A18.2,18.2,0,0,0,56,36.79c.55-1.38.91-2.84,1.35-4.27a27.2,27.2,0,0,0,.23-2.83c0-1.41-.2-2.82-.31-4.22,0-.31,0-.62,0-1.08a7.42,7.42,0,0,1,2,1.71c.45.57.91,1.14,1.38,1.7,0,0,.2-.08.31-.12-.46-.93-.92-1.86-1.39-2.78C57.53,22,54,19.73,50.2,20.46Z"/><path class="cls-1" d="M16,22.58a3.15,3.15,0,0,0,.22.29c.11.15.59.08.88,0-.29.05-.77.12-.88,0A3.15,3.15,0,0,1,16,22.58Z"/><path class="cls-1" d="M21.87,44.58a2.84,2.84,0,0,1,1.34-.77,1.73,1.73,0,0,0,1-.52,1.73,1.73,0,0,1-1,.52A2.84,2.84,0,0,0,21.87,44.58Z"/><path class="cls-1" d="M36.07,49.46a3.52,3.52,0,0,1-.15-.42,3.69,3.69,0,0,1-.11-.45,3.69,3.69,0,0,0,.11.45A3.52,3.52,0,0,0,36.07,49.46Z"/><path class="cls-1" d="M57.76,32.11,57.61,32l-.3.48.3-.48Z"/><path class="cls-1" d="M15.08,14.45a.64.64,0,0,1,0,.2.64.64,0,0,0,0-.2Z"/><path class="cls-1" d="M16,22.58a5.54,5.54,0,0,1-.36-.62A5.54,5.54,0,0,0,16,22.58Z"/><path class="cls-1" d="M10.89,28.33c0,.06,0,.12.07.19l.09.43L11,28.52C10.94,28.45,10.91,28.39,10.89,28.33Z"/><path class="cls-1" d="M14.94,15.25h0a.69.69,0,0,1,0-.2A.69.69,0,0,0,14.94,15.25Z"/><path class="cls-1" d="M20.37,9.66c0,.31,0,.63,0,.95C20.33,10.29,20.34,10,20.37,9.66Z"/><path class="cls-1" d="M41.28,52.3c-.74,0-1.47.07-2.21.09.74,0,1.47,0,2.21-.09s1.24-.3,1.31-.88C42.52,52,42.12,52.25,41.28,52.3Z"/><path class="cls-1" d="M57.38,43.57a.45.45,0,0,1-.16-.47A.45.45,0,0,0,57.38,43.57Z"/><path class="cls-1" d="M59.68,39.18a11.23,11.23,0,0,0,.91-2.49h0A11.23,11.23,0,0,1,59.68,39.18Z"/><path class="cls-1" d="M42.45,50.24c0,.16.08.32.11.48s0,.26,0,.38c0-.12,0-.25,0-.38S42.49,50.4,42.45,50.24Z"/><path class="cls-1" d="M41.86,48.13a.88.88,0,0,1,.25.7,6,6,0,0,0,.34,1.41,6,6,0,0,1-.34-1.41A.88.88,0,0,0,41.86,48.13Z"/><path class="cls-1" d="M60.33,36.6a.23.23,0,0,0,.1,0A.23.23,0,0,1,60.33,36.6Z"/><path class="cls-1" d="M13.49,34l.14.13a.9.9,0,0,0,.25.21.9.9,0,0,1-.25-.21Z"/><path class="cls-1" d="M58.62,43.45l.28-.13a7.84,7.84,0,0,1,.86-.45,7.84,7.84,0,0,0-.86.45Z"/><path class="cls-1" d="M57.83,42.11c-.17.22-.34.44-.49.67a.66.66,0,0,0-.12.32.66.66,0,0,1,.12-.32C57.49,42.55,57.66,42.33,57.83,42.11Z"/><path class="cls-1" d="M62.63,41.3c-.11.07-.25.08-.34.16.09-.08.23-.09.34-.16.76-.48,1.52-1,2.26-1.46s1.19-.84,1.78-1.25c-.59.41-1.17.85-1.78,1.25S63.39,40.82,62.63,41.3Z"/><path class="cls-1" d="M19.42,44.58l.31.12h0Z"/><path class="cls-1" d="M18.71,31.37h0c-1.14-.75-2.28-1.51-3.41-2.28C16.43,29.86,17.57,30.62,18.71,31.37Z"/><path class="cls-1" d="M24.8,46.38l-1.31.68-.19.13.19-.13Z"/><path class="cls-1" d="M36.9,52a2.56,2.56,0,0,1,0,.47A2.56,2.56,0,0,0,36.9,52Z"/><path class="cls-1" d="M21.75,46.49l1.53,1.28,1.66,1.11-1.66-1.11Z"/><path class="cls-1" d="M21.22,45.46c-.08.13-.16.25-.23.39h0C21.06,45.71,21.14,45.59,21.22,45.46Z"/><path class="cls-1" d="M33.42,52.08a21.62,21.62,0,0,1-3.34-.77,21.62,21.62,0,0,0,3.34.77l2.3.37-2.3-.37Z"/><path class="cls-1" d="M24,11.82a4.78,4.78,0,0,1,.61-.28,4.78,4.78,0,0,0-.61.28Z"/><path class="cls-1" d="M27,31.89l2.27-.61,1.34-.46-1.34.46Z"/><path class="cls-1" d="M24.77,11.16a6.09,6.09,0,0,1,1.76-1A6.09,6.09,0,0,0,24.77,11.16Z"/><path class="cls-1" d="M29.93,12.07l-2.16,1.27-1.92,1.25c-.75.73-1.51,1.45-2.27,2.17l-1.25,1.41h0l-.52.88L20.66,21a1.37,1.37,0,0,0,.14,1.43A7.36,7.36,0,0,0,24,25.45c.29.11.62.21.6.6l.11-.05c.3,0,.49.09.78.05h0a7.22,7.22,0,0,0,.83-.23c.62-.25,1.22-.53,1.83-.8l1.47-.78.94-.48c1-.74,2-1.44,3-2.24S35.2,20,36,19.17l3.57-3.77.12-.28a12.81,12.81,0,0,0,2.81-4.3l-1.8-.26c-.44,0-.88-.08-1.32-.07-1,0-2,0-3,0-.36,0-.72,0-1.08.09-1.16.21-2.32.45-3.47.68a1.29,1.29,0,0,0-1.8.13Z"/><path class="cls-1" d="M42.9,9.44a3.58,3.58,0,0,0,.14-1A3.58,3.58,0,0,1,42.9,9.44Z"/><path class="cls-1" d="M50.38,20.46l-3.18.89-1.9.87a3.3,3.3,0,0,1-.07.56c-.48,1.35-1,2.68-1.57,4a17.8,17.8,0,0,1-3.58,4.84,18.12,18.12,0,0,1-3.85,2.58,20.26,20.26,0,0,1-2.1,1,4,4,0,0,1-.92.35c-.83.14-1.68.18-2.5.36a9.14,9.14,0,0,1-4.19.23A12.71,12.71,0,0,0,25,35.83a14.25,14.25,0,0,1-4.91-1.39c-.38-.18-.65,0-.53.35.21.74.54,1.45.82,2.17.08.21.17.42.26.64.37.72.75,1.44,1.13,2.16.16.18.33.35.5.52l2.3,2.65,2.56,2a21.59,21.59,0,0,0,8.75,3.18L41.36,48h0a1.51,1.51,0,0,1,.3-.1,18.48,18.48,0,0,0,8.16-3.37c.61-.45,1.21-.91,1.81-1.37,0,.19,0,.39,0,.58,0-.19,0-.39,0-.58a18.2,18.2,0,0,0,4.51-6.37c.55-1.38.91-2.84,1.35-4.27a27.2,27.2,0,0,0,.23-2.83c0-1.41-.21-2.82-.31-4.22,0-.31,0-.62,0-1.08a7.22,7.22,0,0,1,1.94,1.71c.46.57.91,1.14,1.39,1.7,0,0,.2-.08.31-.12-.46-.93-.92-1.86-1.39-2.78C57.71,22,54.14,19.73,50.38,20.46Z"/><path class="cls-1" d="M20.83,32.06h.07l-.21,0Z"/><path class="cls-1" d="M20.59,32l.07,0h0c-.23-.06-.45-.15-.68-.23C20.19,31.86,20.39,31.94,20.59,32Z"/><path class="cls-1" d="M59.86,39.18a11.23,11.23,0,0,0,.91-2.49h0A11.23,11.23,0,0,1,59.86,39.18Z"/><path class="cls-1" d="M33.6,52.08c-.58-.09-1.14-.19-1.7-.32.56.13,1.12.23,1.7.32l2.3.37-2.3-.37Z"/><path class="cls-1" d="M19.91,44.7h0l-.31-.12Z"/><path class="cls-1" d="M21.93,46.49l1.53,1.28,1.66,1.11-1.66-1.11Z"/><path class="cls-1" d="M28.92,10.93h.51a4.58,4.58,0,0,0,.46-.2,1.58,1.58,0,0,0,.62-2.32A1.69,1.69,0,0,0,28.12,8a1.78,1.78,0,0,0-.62,1.82l.06.12A1.68,1.68,0,0,0,28.92,10.93Z"/><path class="cls-1" d="M68.33,30.08l-.32.36a41.79,41.79,0,0,1-3,3.28,34.87,34.87,0,0,1-3.44,2.56c-.12.08-.39-.06-.59-.09.22-1.9.43-3.81.65-5.71-.18-.92-.36-1.85-.53-2.78l-.1,0c-.11,0-.29.14-.31.12-.48-.56-.93-1.13-1.39-1.7a7.22,7.22,0,0,0-1.94-1.71c0,.46,0,.77,0,1.08.1,1.4.27,2.81.31,4.22a27.2,27.2,0,0,1-.23,2.83c-.44,1.43-.8,2.89-1.35,4.27a18.2,18.2,0,0,1-4.51,6.37c0,.19,0,.39,0,.58,0-.19,0-.39,0-.58-.6.46-1.2.92-1.81,1.37a18.48,18.48,0,0,1-8.16,3.37,1.51,1.51,0,0,0-.3.1h0l-5.45.12a21.59,21.59,0,0,1-8.75-3.18l-2.56-2-2.3-2.65c-.17-.17-.34-.34-.5-.52-.38-.72-.76-1.44-1.13-2.16-.09-.22-.18-.43-.26-.64-.28-.72-.61-1.43-.82-2.17-.12-.39.15-.53.53-.35A14.25,14.25,0,0,0,25,35.83a12.71,12.71,0,0,1,1.49.31,9.14,9.14,0,0,0,4.19-.23c.82-.18,1.67-.22,2.5-.36a4,4,0,0,0,.92-.35,20.26,20.26,0,0,0,2.1-1,18.12,18.12,0,0,0,3.85-2.58,17.8,17.8,0,0,0,3.58-4.84c.59-1.31,1.09-2.64,1.57-4a3.3,3.3,0,0,0,.07-.56l1.9-.87,3.18-.89c3.76-.73,7.33,1.57,9.28,4.44l.09-.06.06-.06a6.48,6.48,0,0,1,.49-1c.19-.32.4-.64.61-.94.44-.62.91-1.21,1.29-1.86.26-.44.51-.89.73-1.36a13.89,13.89,0,0,0,1-2.88,12.87,12.87,0,0,0,.27-1.53,3,3,0,0,1,.18-.58l.58.27a4,4,0,0,0-.35-.75c-.8-1.16-1.6-2.33-2.46-3.45a25.44,25.44,0,0,0-5-4.79A31.38,31.38,0,0,0,50.5,2.19,30.89,30.89,0,0,0,40.4,0a26.09,26.09,0,0,0-9.31,1.3c-1.44.44-2.8,1.14-4.2,1.72-1,.57-2.07,1.07-3,1.71s-2,1.56-3.06,2.35a30.69,30.69,0,0,0-2.3,2.26c-1.19,1.45-2.28,3-3.4,4.47-.11.18-.23.35-.33.53a28,28,0,0,0-3.15,7.85c-.25,1.86-.51,3.71-.76,5.56a3.19,3.19,0,0,0-.08.61c.08,1.47.1,2.94.3,4.39s.54,2.63.83,3.94a4.48,4.48,0,0,0,.14.73,30.3,30.3,0,0,0,3,6.72A28.74,28.74,0,0,0,27,55a28.43,28.43,0,0,0,19.13,2.28,27.5,27.5,0,0,0,11.27-5.34,5.69,5.69,0,0,0,.52-.33,30.43,30.43,0,0,0,4.93-5.15c.89-1.37,1.85-2.71,2.63-4.14.64-1.17,1.07-2.46,1.59-3.69a11.73,11.73,0,0,0,.48-1.37c.36-1.78.69-3.58,1-5.37V30.1ZM20.66,32l-.07,0c-.2,0-.4-.13-.6-.2.23.08.45.17.68.23Zm.17.05-.14,0,.21,0Zm8.48-.78L27,31.89l2.27-.61,1.34-.46Zm2.54-20c1.15-.23,2.31-.47,3.47-.68.36-.06.72-.06,1.08-.09,1,0,2,0,3,0,.44,0,.88,0,1.32.07-1.43-.45-2.84-1-4.29-1.33a22.86,22.86,0,0,0-2.76-.34,10.34,10.34,0,0,1-1.1-.26,2.44,2.44,0,0,1,0-.27c.43-.11.85-.25,1.28-.32a22.25,22.25,0,0,1,7.93.1c1.08.2,1.09.18,1.13,1.3a3.58,3.58,0,0,0,.14-1,3.58,3.58,0,0,1-.14,1c-.13.46-.25.92-.38,1.38a12.81,12.81,0,0,1-2.81,4.3l-.12.28L36,19.17c-.82.79-1.59,1.63-2.46,2.35s-2,1.5-3,2.24l-.94.48L28.16,25c-.61.27-1.21.55-1.83.8a7.22,7.22,0,0,1-.83.23h0c-.29,0-.48-.09-.78-.05l-.11.05c0-.39-.31-.49-.6-.6a7.36,7.36,0,0,1-3.21-3.06A1.37,1.37,0,0,1,20.66,21l1.15-1.91.52-.88h0l1.25-1.41c.76-.72,1.52-1.44,2.27-2.17l1.92-1.25,2.16-1.27.12-.63A1.29,1.29,0,0,1,31.85,11.31ZM16.73,19.44,15.79,21l-.08-.8L16,18.92a17.68,17.68,0,0,1,3.18-5.66c.46-.58.93-1.13,1.4-1.7l1.66-1.51h0c.45.67,1.1.23,1.56.15a36.39,36.39,0,0,0,3.57-1c.05.17.12.37.18.56A1.78,1.78,0,0,1,28.12,8a1.69,1.69,0,0,1,2.39.43,1.58,1.58,0,0,1-.62,2.32,4.58,4.58,0,0,1-.46.2h-.51l.23.1-.08.15a9,9,0,0,0-4.49.36,4.78,4.78,0,0,0-.61.28l-3.56,2.92A20,20,0,0,0,16.73,19.44ZM19.91,44.7l-.31-.12.31.12Zm3.55,3.07-1.53-1.28,1.53,1.28,1.66,1.11ZM33.6,52.08c-.58-.09-1.14-.19-1.7-.32.56.13,1.12.23,1.7.32h0l2.3.37Zm26.26-12.9a11.23,11.23,0,0,0,.91-2.49h0A11.23,11.23,0,0,1,59.86,39.18Z"/><path class="cls-1" d="M24,11.82h0c.26-.23.52-.45.8-.66a6.09,6.09,0,0,1,1.76-1,3.78,3.78,0,0,1,1-.23l-.06-.12c-.06-.19-.13-.39-.18-.56a36.39,36.39,0,0,1-3.57,1c-.46.08-1.11.52-1.56-.15h0l-1.66,1.51c-.47.57-.94,1.12-1.4,1.7A17.68,17.68,0,0,0,16,18.92l-.24,1.28.08.8.94-1.56a20,20,0,0,1,3.68-4.7Z"/><path class="cls-1" d="M42.9,9.44c0-1.12,0-1.1-1.13-1.3A22.25,22.25,0,0,0,33.84,8c-.43.07-.85.21-1.28.32a2.44,2.44,0,0,0,0,.27,10.34,10.34,0,0,0,1.1.26,22.86,22.86,0,0,1,2.76.34c1.45.37,2.86.88,4.29,1.33l1.8.26C42.65,10.36,42.77,9.9,42.9,9.44Z"/><path class="cls-1" d="M27.56,9.91a3.78,3.78,0,0,0-1,.23,6.09,6.09,0,0,0-1.76,1c-.28.21-.54.43-.8.66a4.78,4.78,0,0,1,.61-.28,9,9,0,0,1,4.49-.36l.08-.15-.23-.1A1.68,1.68,0,0,1,27.56,9.91Z"/><polygon class="cls-1" points="23.97 11.82 23.97 11.82 23.97 11.82 23.97 11.82"/><path class="cls-1" d="M64.22,15.18A12.87,12.87,0,0,1,64,16.71a13.89,13.89,0,0,1-1,2.88c-.22.47-.47.92-.73,1.36-.38.65-.85,1.24-1.29,1.86-.21.3-.42.62-.61.94a6.48,6.48,0,0,0-.49,1l-.06.06-.09.06c.47.92.93,1.85,1.39,2.78l.1,0a28.29,28.29,0,0,0,2.36-2.77c.76-1.13,1.32-2.4,2-3.61.27-.51.54-1,.78-1.55s.32-.66.87-.2C66.41,18,65.7,16.43,65,14.87l-.58-.27A3,3,0,0,0,64.22,15.18Z"/><path class="cls-2" d="M59.48,24.9c.47.92.93,1.85,1.39,2.78-.11,0-.29.14-.31.12-.47-.56-.93-1.13-1.38-1.7a7.42,7.42,0,0,0-2-1.71c0,.46,0,.77,0,1.08.11,1.4.27,2.81.31,4.22a27.2,27.2,0,0,1-.23,2.83c-.44,1.43-.8,2.89-1.35,4.27a18.2,18.2,0,0,1-4.51,6.37c-.6.46-1.2.92-1.81,1.37a18.48,18.48,0,0,1-8.16,3.37,1.51,1.51,0,0,0-.3.1l-5.45.12A21.59,21.59,0,0,1,27,44.94l-2.56-2-2.3-2.65c.16-.09.34-.27.48-.24a16,16,0,0,1,1.67.36,15.28,15.28,0,0,0,6.35.17,19.43,19.43,0,0,0,5.11-1.37c.13-.06.29,0,.43-.09a10,10,0,0,0,1.28-.5c.41-.21.77-.53,1.18-.74a16.94,16.94,0,0,0,4.57-3.32,28.52,28.52,0,0,0,3.32-4c.63-.93,1.18-1.9,1.75-2.87a2.89,2.89,0,0,0,.28-.76c.3-1.14.52-2.31.91-3.41A6.11,6.11,0,0,0,49.88,21c0-.17.21-.36.32-.55C54,19.73,57.53,22,59.48,24.9Z"/><path class="cls-2" d="M50.2,20.46c-.11.19-.33.38-.32.55a6.11,6.11,0,0,1-.43,2.53c-.39,1.1-.61,2.27-.91,3.41a2.89,2.89,0,0,1-.28.76c-.57,1-1.12,1.94-1.75,2.87a28.52,28.52,0,0,1-3.32,4,16.94,16.94,0,0,1-4.57,3.32c-.41.21-.77.53-1.18.74a10,10,0,0,1-1.28.5c-.14,0-.3,0-.43.09a19.43,19.43,0,0,1-5.11,1.37,15.28,15.28,0,0,1-6.35-.17A16,16,0,0,0,22.6,40c-.14,0-.32.15-.48.24l-.5-.52c-.38-.72-.76-1.44-1.13-2.16v-.69a4.05,4.05,0,0,0,1.16.52c2.17.15,4.25.93,6.51.72A24.36,24.36,0,0,0,34.83,37a19.83,19.83,0,0,0,5.09-2.84,11.54,11.54,0,0,0,3.2-3.11c.68-1.18,1.55-2.25,2.3-3.4.22-.34.22-.85.48-1.14,1-1.17,1.06-2.62,1.23-4,0-.19-.15-.42-.23-.63l.12-.5Z"/><path class="cls-2" d="M35.84,19.17c0-.58-.09-1.17-.11-1.75a6.61,6.61,0,0,0-2.35-4.71c-.45-.42-1-.76-1.47-1.14l-.24-.26c1.16-.23,2.31-.47,3.48-.68.35-.06.71-.06,1.07-.09l1,.05c.17.42.2.84.43,1.06a5.22,5.22,0,0,1,1.17,2.26,8.56,8.56,0,0,0,.69,1.21l-.12.28Z"/><path class="cls-2" d="M20.23,37a2.65,2.65,0,0,1,.73-.09c.45.1.87.32,1.31.4a21.82,21.82,0,0,0,6.33.7c1.3-.14,2.58-.38,3.88-.55a13.68,13.68,0,0,0,4.42-1.58,30.72,30.72,0,0,0,4.44-3.11,10,10,0,0,0,1.9-2.26,18.69,18.69,0,0,0,1.93-2.95c.72-1.51,1.76-2.93,1.74-4.72,0-.32,0-.63,0-.95.08.21.25.44.23.63-.17,1.42-.19,2.87-1.23,4-.26.29-.26.8-.48,1.14-.75,1.15-1.62,2.22-2.3,3.4a11.54,11.54,0,0,1-3.2,3.11A19.83,19.83,0,0,1,34.83,37a24.36,24.36,0,0,1-6.67,1.14c-2.26.21-4.34-.57-6.51-.72a4.05,4.05,0,0,1-1.16-.52v.69Z"/><path class="cls-2" d="M20.48,21l1.15-1.91a14.63,14.63,0,0,0,1.43,3.19A5.59,5.59,0,0,0,27,24.41c.36,0,.68.4,1,.61-.61.27-1.21.55-1.83.8a7.22,7.22,0,0,1-.83.23l-.89.12c.12-.51-.28-.59-.6-.72a7.36,7.36,0,0,1-3.21-3.06A1.39,1.39,0,0,1,20.48,21Z"/><path class="cls-2" d="M40.54,10.56l1.8.26a12.81,12.81,0,0,1-2.81,4.3,8.56,8.56,0,0,1-.69-1.21,5.22,5.22,0,0,0-1.17-2.26c-.23-.22-.26-.64-.43-1.06l-1-.05c1,0,2,0,3,0C39.66,10.48,40.1,10.53,40.54,10.56Z"/><path class="cls-2" d="M29.25,10.92h-.51a1.68,1.68,0,0,1-1.36-1l-.06-.12A1.78,1.78,0,0,1,27.94,8a1.7,1.7,0,0,1,2.4.43,1.58,1.58,0,0,1-.63,2.32A4.58,4.58,0,0,1,29.25,10.92Z"/><path class="cls-2" d="M29.75,12.07l.12-.63a1.29,1.29,0,0,1,1.8-.13l.24.26c0,.12,0,.25,0,.37,0,.8-.34,1.24-1,1.27S29.85,12.83,29.75,12.07Z"/><path class="cls-2" d="M25.68,14.59l1.91-1.25c0,.3.13.48.5.52a4.46,4.46,0,0,1,4.31,3.83,4.84,4.84,0,0,1-2.7,5,4.69,4.69,0,0,1-6-2.28,5.58,5.58,0,0,1-.31-3.62Zm-.11,3.82a2.27,2.27,0,0,0,2.15,2.42,2.5,2.5,0,0,0,2.53-2.54,2.34,2.34,0,0,0-2.45-2.24A2.23,2.23,0,0,0,25.57,18.41Z"/></g></g></svg>